# xmcd
#
# Track frame offsets:
#  150
#  12439
#  25524
#  39587
#  51525
#  65710
#  78683
#  93610
#  110289
#  126608
#  141993
#  156760
#  173437
#  189322
#  205793
#  219826
#  233931
#  247180
#  271277
#  299754
#  311200
#
# Disc length: 4325 seconds
#
# Revision: 0
# Processed by: cddbd v1.5.1PL2 Copyright (c) Steve Scherf et al.
# Submitted via: Collectorz.com_Music_Collector 6.11
#
DISCID=4110e315
DTITLE=Billy Eckstine - Quadromania: I Ain't Like That [CD4)
DYEAR=2005
DGENRE=Pop Classic Band-Vocal - Pop Classic Vocal
TTITLE0=Life Is Just a Bowl of Cherries
TTITLE1=Wonder Why
TTITLE2=I'm a Fool to Want You
TTITLE3=Taking a Chance on Love
TTITLE4=You're Driving Me Crazy
TTITLE5=I Apologize
TTITLE6=Early Autumn
TTITLE7=Tenderly
TTITLE8=One for My Baby
TTITLE9=If You Could See Me Now
TTITLE10=Laura
TTITLE11=Smoke Gets in Your Eyes
TTITLE12=Mister You've Gone and Got the Blues
TTITLE13=I'll Wind
TTITLE14=April in Paris
TTITLE15=Coquette
TTITLE16=Send My Baby Back to Me
TTITLE17=How High the Moon
TTITLE18=St. Louis Blues
TTITLE19=Billy Eckstine - Pied Pipers - Don't Get Around Much Anymore
TTITLE20=Billy Eckstine - Pied Pipers - Lost in Loveliness
EXTD=
EXTT0=
EXTT1=
EXTT2=
EXTT3=
EXTT4=
EXTT5=
EXTT6=
EXTT7=
EXTT8=
EXTT9=
EXTT10=
EXTT11=
EXTT12=
EXTT13=
EXTT14=
EXTT15=
EXTT16=
EXTT17=
EXTT18=
EXTT19=
EXTT20=
PLAYORDER=
